<?xml version="1.0" encoding="UTF-8" standalone="no"?>
<svg
   xmlns:dc="http://purl.org/dc/elements/1.1/"
   xmlns:cc="http://creativecommons.org/ns#"
   xmlns:rdf="http://www.w3.org/1999/02/22-rdf-syntax-ns#"
   xmlns:svg="http://www.w3.org/2000/svg"
   xmlns="http://www.w3.org/2000/svg"
   xmlns:sodipodi="http://sodipodi.sourceforge.net/DTD/sodipodi-0.dtd"
   xmlns:inkscape="http://www.inkscape.org/namespaces/inkscape"
   sodipodi:docname="art.svg"
   inkscape:version="1.0 (4035a4fb49, 2020-05-01)"
   id="svg8"
   version="1.1"
   viewBox="0 0 210 297"
   height="297mm"
   width="210mm">
  <defs
     id="defs2" />
  <sodipodi:namedview
     inkscape:window-maximized="1"
     inkscape:window-y="-8"
     inkscape:window-x="1912"
     inkscape:window-height="1027"
     inkscape:window-width="1920"
     showgrid="false"
     inkscape:document-rotation="0"
     inkscape:current-layer="layer1"
     inkscape:document-units="mm"
     inkscape:cy="488.80699"
     inkscape:cx="331.50773"
     inkscape:zoom="0.7"
     inkscape:pageshadow="2"
     inkscape:pageopacity="0.0"
     borderopacity="1.0"
     bordercolor="#666666"
     pagecolor="#ffffff"
     id="base" />
  <metadata
     id="metadata5">
    <rdf:RDF>
      <cc:Work
         rdf:about="">
        <dc:format>image/svg+xml</dc:format>
        <dc:type
           rdf:resource="http://purl.org/dc/dcmitype/StillImage" />
        <dc:title></dc:title>
      </cc:Work>
    </rdf:RDF>
  </metadata>
  <g
     id="layer1"
     inkscape:groupmode="layer"
     inkscape:label="Layer 1">
    <path
       d="m 88.206951,4.8539367 c -1.636154,-1.028681 -3.615976,-1.286205 -5.495449,-0.870812 -0.845444,0.186854 -1.65713,0.502684 -2.485694,0.754028 -3.422788,1.51656 -6.572832,3.597865 -9.140611,6.3449123 -0.905155,0.968346 -1.815605,1.960256 -2.48567,3.103938 -1.948307,3.325418 -1.874128,4.960022 -2.527797,8.714515 0.04037,1.623941 -0.157319,3.271425 0.121128,4.871826 0.302948,1.741218 0.895051,3.434937 1.60568,5.053152 1.716696,3.90921 3.373996,6.02499 6.892636,8.54321 4.121822,2.9499 6.509012,3.34498 11.253748,4.92692 2.039303,0.32154 4.056036,0.8605 6.117902,0.96461 2.09164,0.10561 4.19875,-0.0553 6.27376,-0.33892 5.774836,-0.78924 11.291926,-3.03597 15.584396,-7.06393 1.24726,-1.17041 2.15812,-2.65417 3.23718,-3.98125 1.36675,-3.03727 3.12522,-5.892823 2.8604,-9.421393 -0.12902,-1.719173 -0.77336,-3.390749 -1.52611,-4.941739 -1.55102,-3.195786 -4.27819,-6.031601 -6.97533,-8.258668 -1.34906,-1.113924 -2.86489,-2.008856 -4.29734,-3.013286 -1.56161,-0.7009873 -3.12323,-1.4019723 -4.68485,-2.1029593 0,0 -0.0442,0.02907 -0.0442,0.02907 v 0 c 1.40534,0.800132 2.81066,1.600263 4.21599,2.4003983 1.41552,1.011279 2.9099,1.920404 4.24655,3.033836 2.7169,2.263185 5.38094,5.003144 6.95882,8.229754 0.75226,1.538282 1.40743,3.193777 1.5393,4.901059 0.27131,3.512413 -1.49409,6.366458 -2.85828,9.384798 -2.56802,3.15183 -3.40958,4.78091 -6.93774,6.86602 -4.91768,2.90632 -11.507876,4.25936 -17.175534,3.98407 -2.060313,-0.10008 -4.075838,-0.63812 -6.113754,-0.95717 -4.849566,-1.62219 -6.993353,-1.93886 -11.21646,-4.92523 -3.630644,-2.5674 -5.183722,-4.46216 -6.958864,-8.47454 -0.713026,-1.611666 -1.310955,-3.298662 -1.613395,-5.034871 -0.278485,-1.59869 -0.07431,-3.244678 -0.111464,-4.867016 0.652407,-3.667937 0.61939,-5.429586 2.511722,-8.683813 0.661556,-1.137671 1.562944,-2.125271 2.461262,-3.087028 2.38718,-2.5557673 5.245127,-4.5462963 8.443915,-5.9353853 1.770317,-0.528643 2.533605,-0.918268 4.310269,-0.927849 1.267307,-0.0068 2.499791,0.552871 3.647387,1.016045 0,0 0.366517,-0.236297 0.366517,-0.236297 z"
       id="head"
       style="fill:#ec0b0b;stroke:#000000;stroke-width:2.5" />
    <path
       d="m 95.140371,102.41907 c 0.864481,3.67613 1.433171,7.41105 1.957194,11.14859 1.044649,7.11303 1.205439,14.29836 1.200613,21.47381 -0.135374,7.11137 -0.447796,14.23106 -0.04026,21.34036 0.05747,1.00251 0.161023,2.00186 0.241533,3.00279 0.112138,1.81346 0.446161,3.58204 0.533736,5.39427 0,0 0.04711,-0.0241 0.04711,-0.0241 v 0 c 0.0204,-1.90567 0.188211,-3.80446 0.08237,-5.71176 -0.03269,-3.68041 -0.161221,-7.36013 -0.161401,-11.04075 -1.98e-4,-4.02695 0.07456,-4.94918 0.170765,-8.95782 0.03596,-1.49842 0.06247,-2.99705 0.0937,-4.49558 0.041,-7.18758 -0.07125,-14.39733 -1.148204,-21.51982 -0.56796,-3.68208 -1.161973,-7.38297 -2.448137,-10.89673 0,0 -0.529013,0.28676 -0.529013,0.28676 z"
       id="body"
       style="fill:#ec0b0b;stroke:#000000;stroke-width:2.5" />
    <path
       d="m 112.5263,90.400505 c 9.0309,-3.91545 17.89214,-8.21434 26.81782,-12.36252 7.82817,-3.63531 15.71775,-7.14022 23.49777,-10.87904 3.46357,-1.66447 6.52092,-3.16552 9.83733,-5.03953 1.01297,-0.5724 1.99177,-1.20327 2.98766,-1.8049 0,0 -0.0494,0.0191 -0.0494,0.0191 v 0 c -0.96569,0.58422 -1.9125,1.20086 -2.89706,1.75267 -2.82419,1.58285 -6.92048,3.59386 -9.71455,4.9421 -7.78648,3.75728 -15.6759,7.29465 -23.5306,10.90533 -8.87399,4.09713 -17.72578,8.24307 -26.65018,12.22978 0,0 -0.29883,0.23704 -0.29883,0.23704 z"
       id="right_arm"
       style="fill:#ec0b0b;stroke:#000000;stroke-width:2.5" />
    <path
       d="M 76.952081,91.7002 C 70.989934,90.50832 65.512368,87.66971 60.057051,85.09847 51.113283,80.87089 42.39808,76.1932 33.676868,71.53095 c 0,0 -0.04428,0.029 -0.04428,0.029 v 0 c 8.673825,4.63692 17.318953,9.3329 26.109607,13.74647 5.401622,2.63317 10.823043,5.53409 16.776872,6.69661 0,0 0.433017,-0.3028 0.433017,-0.3028 z"
       id="left_arm"
       style="fill:#ec0b0b;stroke:#000000;stroke-width:2.5" />
    <path
       d="m 113.1007,183.00557 c 0.46823,0.19241 0.9498,0.34838 1.40468,0.57722 4.79482,2.41205 9.3244,5.70798 13.76221,8.81154 5.49411,3.84228 12.32626,8.8444 17.67317,12.72639 14.2211,10.70447 7.14759,5.20147 21.21553,16.51706 0,0 0.0663,-0.047 0.0663,-0.047 v 0 c -14.03687,-11.2907 -7.04782,-5.72636 -20.96494,-16.69647 -6.92412,-5.33962 -10.36553,-8.10175 -17.25225,-13.03173 -2.06849,-1.48076 -4.16403,-2.91458 -6.27219,-4.32389 -2.24653,-1.50186 -4.99538,-3.33502 -7.50428,-4.50389 -0.48497,-0.22595 -1.00594,-0.34003 -1.50889,-0.51003 0,0 -0.61925,0.48075 -0.61925,0.48075 z"
       id="right_leg"
       style="fill:#ec0b0b;stroke:#000000;stroke-width:3.91527" />
    <path
       d="m 79.386755,181.19535 c -9.410038,7.78815 -17.566324,16.52134 -26.070292,24.96395 -2.879355,2.85858 -5.801623,5.68767 -8.702438,8.53151 -2.62895,2.58887 -5.257906,5.17772 -7.886858,7.76658 0,0 0.09114,-0.0319 0.09114,-0.0319 v 0 c 2.62896,-2.58886 5.257918,-5.17771 7.886873,-7.76656 11.806601,-11.57467 23.774161,-23.04538 36.379887,-34.03884 0,0 -1.698319,0.57524 -1.698319,0.57524 z"
       id="left_leg"
       style="fill:#ec0b0b;stroke:#000000;stroke-width:4.24482" />
    <path
       d="m 174.82745,34.273995 c 0.0839,-2.183333 -0.0417,-4.364683 -0.0856,-6.546985 0.0603,-0.53082 -0.23064,-2.102082 0.32223,-2.491811 0.21297,-0.150125 0.45657,-0.251238 0.68485,-0.376857 0.054,-0.0074 0.11246,2.65e-4 0.16209,-0.0222 0.81854,-0.372692 1.61618,-0.790318 2.4358,-1.160648 3.44659,-1.557295 4.5298,-1.929622 8.25515,-3.452603 3.64528,-1.490253 7.28368,-2.997293 10.92578,-4.495308 1.51231,-0.612741 3.02462,-1.225481 4.53694,-1.838225 0,0 0.0416,-0.03273 0.0416,-0.03273 v 0 c -1.51231,0.612749 -3.02461,1.225497 -4.53692,1.838248 -1.66809,0.640604 -3.33218,1.29176 -5.00428,1.921815 -6.13552,2.311886 -12.40862,4.427643 -18.09938,7.740824 -0.16366,0.124627 -0.35247,0.22179 -0.49098,0.373878 -0.13933,0.152982 0.34732,2.042173 0.23498,2.269889 0.15812,2.15006 0.2698,4.309732 0.23636,6.465692 0,0 0.38138,-0.192977 0.38138,-0.192977 z"
       id="gun"
       style="fill:#ff0000;stroke:#000000;stroke-width:2.5" />
    <g
       transform="translate(20.032738,-23.056548)"
       id="bang">
      <path
         style="fill:#ff0000;stroke:#ff0000;stroke-width:2.5"
         id="path857"
         d="m 205.35269,53.111637 c 1.93446,-4.869174 4.39443,-9.512339 7.06877,-14.011444 1.08268,-1.82142 2.24051,-3.597113 3.36076,-5.395669 0,0 -0.0484,0.02135 -0.0484,0.02135 v 0 c -3.94857,6.339668 -8.18707,12.623432 -10.89298,19.624603 0,0 0.51186,-0.238852 0.51186,-0.238852 z" />
      <path
         style="fill:#ff0000;stroke:#ff0000;stroke-width:2.5"
         id="path859"
         d="m 207.81235,54.480975 c 3.76598,-2.844567 8.13445,-4.713076 12.39696,-6.664722 0,0 0.0414,-0.03291 0.0414,-0.03291 v 0 c -4.45503,2.039554 -9.01733,3.994719 -12.98546,6.917555 0,0 0.54706,-0.219922 0.54706,-0.219922 z" />
      <path
         style="fill:#ff0000;stroke:#ff0000;stroke-width:2.5"
         id="path861"
         d="m 206.36087,55.626679 c 6.92151,2.841027 13.98658,5.31318 21.03208,7.825298 0,0 0.0438,-0.02962 0.0438,-0.02962 v 0 c -1.81151,-0.645885 -3.63291,-1.264682 -5.43453,-1.937657 -5.10022,-1.905133 -10.05991,-4.133305 -15.07882,-6.235544 0,0 -0.56258,0.377523 -0.56258,0.377523 z" />
    </g>
  </g>
</svg>
